<svg xmlns="http://www.w3.org/2000/svg" xmlns:xlink="http://www.w3.org/1999/xlink">
  <symbol viewBox=" 0 0 16 16" id="phone">
    <path
      d="M11.6 14.667A10.28 10.28 0 011.333 4.4 3.067 3.067 0 014.4 1.333c.172-.001.344.015.513.047.164.024.325.064.48.12a.667.667 0 01.434.5l.913 4a.667.667 0 01-.173.613c-.087.094-.094.1-.914.527A6.607 6.607 0 008.9 10.4c.433-.827.44-.833.533-.92a.667.667 0 01.614-.173l4 .913a.667.667 0 01.48.433 2.89 2.89 0 01.166.994 3.067 3.067 0 01-3.093 3.02zm-7.2-12A1.74 1.74 0 002.667 4.4a8.94 8.94 0 008.933 8.933 1.74 1.74 0 001.733-1.733v-.22l-3.093-.713-.193.366c-.3.58-.52 1-1.08.774A7.9 7.9 0 014.18 7c-.24-.52.213-.76.787-1.06l.366-.18-.713-3.093H4.4z"
      fill="#969696" />
  </symbol>
  <symbol viewBox="0 0 512 512" id="login">
    <path d='M192 176v-40a40 40 0 0140-40h160a40 40 0 0140 40v240a40 40 0 01-40 40H240c-22.09 0-48-17.91-48-40v-40'
      fill='none' stroke='#989898' stroke-linecap='round' stroke-linejoin='round' stroke-width='32' />
    <path fill='none' stroke='#989898' stroke-linecap='round' stroke-linejoin='round' stroke-width='32'
      d='M288 336l80-80-80-80M80 256h272' />
  </symbol>
  <symbol viewBox="0 0 22 22" id="basket">
    <path
      d="M20.003 6.812a.917.917 0 00-.753-.395H6.722l-1.058-2.54A1.828 1.828 0 003.972 2.75H1.833v1.833h2.139L8.32 15.02a.916.916 0 00.846.563H16.5a.919.919 0 00.859-.594l2.75-7.333a.916.916 0 00-.106-.844zm-4.138 6.938H9.778l-2.292-5.5h10.441l-2.062 5.5zm-6.24 5.5a1.375 1.375 0 100-2.75 1.375 1.375 0 000 2.75zm6.417 0a1.375 1.375 0 100-2.75 1.375 1.375 0 000 2.75z"
      fill="#fff" />
  </symbol>
  <symbol viewBox="0 0 22 22" id="search">
    <path
      d="M19.25 17.417l-4.725-4.725a6.417 6.417 0 10-1.833 1.834l4.725 4.724 1.833-1.833zM4.583 9.167a4.589 4.589 0 014.584-4.584 4.589 4.589 0 014.583 4.584 4.589 4.589 0 01-4.583 4.583 4.589 4.589 0 01-4.584-4.583z"
      fill="#fff" />
  </symbol>
</svg>