<svg xmlns="http://www.w3.org/2000/svg" xmlns:xlink="http://www.w3.org/1999/xlink">
  <symbol viewBox="0 0 16 16" id="eva_phone-outline">
    <path
      d="M11.6 14.667A10.28 10.28 0 011.333 4.4 3.067 3.067 0 014.4 1.333c.172-.001.344.015.513.047.164.024.325.064.48.12a.667.667 0 01.434.5l.913 4a.667.667 0 01-.173.613c-.087.094-.094.1-.914.527A6.607 6.607 0 008.9 10.4c.433-.827.44-.833.533-.92a.667.667 0 01.614-.173l4 .913a.667.667 0 01.48.433 2.89 2.89 0 01.166.994 3.067 3.067 0 01-3.093 3.02zm-7.2-12A1.74 1.74 0 002.667 4.4a8.94 8.94 0 008.933 8.933 1.74 1.74 0 001.733-1.733v-.22l-3.093-.713-.193.366c-.3.58-.52 1-1.08.774A7.9 7.9 0 014.18 7c-.24-.52.213-.76.787-1.06l.366-.18-.713-3.093H4.4z"
      fill="#969696" />
  </symbol>
  <symbol viewBox="3 0 14 14" id="ic_sharp-log-in">
    <g filter="url(#ic:sharp-log-in__filter0_d)" fill="#969696">
      <path
        d="M8.25 1.167h5.25a1.17 1.17 0 011.167 1.166v9.334a1.17 1.17 0 01-1.167 1.166H8.25a1.17 1.17 0 01-1.167-1.166V10.5H8.25v1.167h5.25V2.333H8.25V3.5H7.083V2.333A1.17 1.17 0 018.25 1.167z" />
      <path d="M8.886 9.094l.822.823L12.625 7 9.708 4.083l-.822.823 1.505 1.51H4.75v1.167h5.64L8.887 9.094z" />
    </g>
    <defs>
      <filter id="ic:sharp-log-in__filter0_d" x="-1" y="0" width="22" height="22" filterUnits="userSpaceOnUse"
        color-interpolation-filters="sRGB">
        <feFlood flood-opacity="0" result="BackgroundImageFix" />
        <feColorMatrix in="SourceAlpha" values="0 0 0 0 0 0 0 0 0 0 0 0 0 0 0 0 0 0 127 0" />
        <feOffset dy="4" />
        <feGaussianBlur stdDeviation="2" />
        <feColorMatrix values="0 0 0 0 0 0 0 0 0 0 0 0 0 0 0 0 0 0 0.25 0" />
        <feBlend in2="BackgroundImageFix" result="effect1_dropShadow" />
        <feBlend in="SourceGraphic" in2="effect1_dropShadow" result="shape" />
      </filter>
    </defs>
  </symbol>
  <symbol viewBox="0 0 22 22" id="basket">
    <path
      d="M20.003 6.812a.917.917 0 00-.753-.395H6.722l-1.058-2.54A1.828 1.828 0 003.972 2.75H1.833v1.833h2.139L8.32 15.02a.916.916 0 00.846.563H16.5a.919.919 0 00.859-.594l2.75-7.333a.916.916 0 00-.106-.844zm-4.138 6.938H9.778l-2.292-5.5h10.441l-2.062 5.5zm-6.24 5.5a1.375 1.375 0 100-2.75 1.375 1.375 0 000 2.75zm6.417 0a1.375 1.375 0 100-2.75 1.375 1.375 0 000 2.75z"
      fill="#fff" />
  </symbol>
  <symbol viewBox="0 0 22 22" id="search">
    <path
      d="M19.25 17.417l-4.725-4.725a6.417 6.417 0 10-1.833 1.834l4.725 4.724 1.833-1.833zM4.583 9.167a4.589 4.589 0 014.584-4.584 4.589 4.589 0 014.583 4.584 4.589 4.589 0 01-4.583 4.583 4.589 4.589 0 01-4.584-4.583z"
      fill="#fff" />
  </symbol>
</svg>